# xmcd
#
# Track frame offsets: 
#        150
#        26950
#        48007
#        65962
#        84915
#        104410
#        123962
#        143955
#        163132
#        188134
#        212140
#        233272
#        252932
#        271180
#
# Disc length: 3904 seconds
#
# Revision: 3
# Processed by: cddbd v1.5.2PL0 Copyright (c) Steve Scherf et al.
# Submitted via: ExactAudioCopy v1.0b3
#
DISCID=c20f3e0e
DTITLE=Patti LaBelle - Flame
DYEAR=1997
DGENRE=Soul
TTITLE0=Someone Like You
TTITLE1=I Like the Way It Feels
TTITLE2=You Are My Solid Ground
TTITLE3=Flame
TTITLE4=Let Me Be Your Lady
TTITLE5=Does He Love You
TTITLE6=Shoe Was On the Other Foot
TTITLE7=Addicted To You
TTITLE8=When You Talk About Love
TTITLE9=Love Is Just A Whisper Away
TTITLE10=If By Chance
TTITLE11=Let Me Be There For You
TTITLE12=You Saved My Life
TTITLE13=Don't Block The Blessings
EXTD=
EXTT0=
EXTT1=
EXTT2=
EXTT3=
EXTT4=
EXTT5=
EXTT6=
EXTT7=
EXTT8=
EXTT9=
EXTT10=
EXTT11=
EXTT12=
EXTT13=
PLAYORDER=
